<?xml version="1.0" encoding="utf-8"?>
<!-- Generator: Adobe Illustrator 22.1.0, SVG Export Plug-In . SVG Version: 6.00 Build 0)  -->
<svg version="1.1" id="Capa_1" xmlns="http://www.w3.org/2000/svg" xmlns:xlink="http://www.w3.org/1999/xlink" x="0px" y="0px"
	 viewBox="0 0 144.2 61" style="enable-background:new 0 0 144.2 61;" xml:space="preserve">
<style type="text/css">
	.st0{fill:#0089D0;}
	.st1{fill:#B0B0B0;}
</style>
<g>
	<title>Ehe_web</title>
	<path class="st0" d="M0.1,0.2v60.6h57.2V0.2H0.1z M50,44.4c-3.5,5-8.7,8.4-14.6,9.7l-3.8-21.8L30.1,31l-0.9,1.7l3.2,18.4L31,51.4
		L27.9,33l-1.7-1.3l-0.9,1.8l3.2,18.3L27.3,52l-3.2-18.3l-1.6-1.4l-0.9,1.8l3.2,18.4l-1.1,0.2l-3.2-18.4l-1.6-1.3L18,34.7l3.1,17.9
		c-3.8-1.6-7.1-4.2-9.5-7.5l0,0c-7.9-10.5-5.8-25.3,4.7-33.2c7.1-5.3,16.5-6.3,24.5-2.5L16,27.9c11.6,3,20-7.6,29.3-15.5
		c2.2,1.8,4.1,4,5.5,6.4c-9.5,2-16,6.6-16.3,12.2C34.4,36.6,40.7,41.6,50,44.4L50,44.4z"/>
	<polygon class="st0" points="70.7,7 76.5,7 76.5,8.3 72.4,8.3 72.4,11.2 75.6,11.2 75.6,12.5 72.4,12.5 72.4,15.6 76.5,15.6 
		76.5,17 70.7,17 70.7,7 	"/>
	<path class="st0" d="M84.2,9.2l-1.4,0.5c-0.1-0.4-0.3-0.9-0.7-1.2c-0.3-0.3-0.7-0.4-1.1-0.4c-0.7-0.1-1.3,0.5-1.4,1.2
		c0,0,0,0.1,0,0.1c0,0.3,0.1,0.7,0.4,0.9c0.5,0.3,1,0.6,1.6,0.8c0.5,0.2,1.1,0.4,1.6,0.7c0.4,0.2,0.7,0.6,0.9,0.9
		c0.2,0.4,0.3,0.9,0.3,1.4c0,0.8-0.3,1.6-0.9,2.1c-0.7,0.6-1.6,0.9-2.5,0.9c-1.7,0.1-3.2-1.1-3.4-2.8l1.5-0.4c0.3,1.2,0.9,1.8,2,1.8
		c0.4,0,0.9-0.1,1.2-0.4c0.3-0.3,0.4-0.6,0.4-1c0-0.3-0.1-0.6-0.3-0.8c-0.4-0.4-0.9-0.7-1.4-0.8c-0.6-0.2-1.1-0.5-1.7-0.8
		c-0.4-0.2-0.7-0.6-0.9-0.9c-0.6-1.1-0.5-2.5,0.5-3.4c0.6-0.6,1.4-0.9,2.2-0.8C82.5,6.6,83.9,7.7,84.2,9.2L84.2,9.2z"/>
	<path class="st0" d="M90.9,13.6l1.5,0.2c-0.3,2.2-1.4,3.3-3.3,3.3c-1.1,0.1-2.1-0.5-2.7-1.4c-0.6-1.1-0.9-2.4-0.8-3.7
		c-0.1-1.4,0.2-2.7,1-3.9c0.6-0.9,1.6-1.4,2.6-1.3c1.8,0,2.9,1.2,3.2,3.4l-1.5,0.2c-0.2-1.5-0.7-2.3-1.7-2.3c-1.3,0-1.9,1.3-1.9,3.9
		c0,2.5,0.6,3.7,1.9,3.7c0.5,0,0.9-0.2,1.2-0.6C90.7,14.7,90.9,14.2,90.9,13.6z"/>
	<path class="st0" d="M93.9,7h1.6v6.2c0,0.5,0,1,0.1,1.5c0.1,0.3,0.2,0.6,0.5,0.8c0.3,0.2,0.7,0.3,1.1,0.3c0.3,0,0.7-0.1,1-0.2
		c0.2-0.2,0.4-0.4,0.5-0.7c0.1-0.6,0.2-1.1,0.2-1.7V7h1.5v6.1c0,0.8,0,1.5-0.2,2.3c-0.2,0.5-0.5,1-1,1.3c-0.6,0.4-1.3,0.6-2,0.5
		c-0.6,0-1.2-0.1-1.7-0.3c-0.5-0.2-0.9-0.6-1.1-1c-0.3-0.8-0.4-1.7-0.4-2.6C93.9,13.2,93.9,7,93.9,7z"/>
	<polygon class="st0" points="101.8,7 107.6,7 107.6,8.3 103.5,8.3 103.5,11.2 106.7,11.2 106.7,12.5 103.5,12.5 103.5,15.6 
		107.6,15.6 107.6,17 101.8,17 101.8,7 	"/>
	<polygon class="st0" points="109.1,7 110.8,7 110.8,15.6 114.3,15.6 114.3,17 109.1,17 109.1,7 	"/>
	<path class="st0" d="M118.2,7h1.9l2.7,10h-1.7l-0.6-2.5h-2.9l-0.6,2.5h-1.6C115.3,17,118.2,7,118.2,7z M120.1,13.2L119,8.6
		l-1.2,4.6H120.1z"/>
	<path class="st0" d="M129.6,7h2.3c0.9,0,1.8,0.2,2.6,0.6c0.7,0.4,1.2,1,1.5,1.7c0.4,0.8,0.5,1.7,0.5,2.5c0,0.9-0.1,1.8-0.5,2.6
		c-0.3,0.7-0.8,1.4-1.4,1.8c-0.8,0.5-1.7,0.8-2.6,0.7h-2.4V7z M131.3,8.3v7.4h0.7c0.8,0.1,1.6-0.3,2.1-1c0.5-0.8,0.7-1.7,0.7-2.7
		c0-2.5-0.9-3.7-2.8-3.7H131.3z"/>
	<polygon class="st0" points="138,7 143.8,7 143.8,8.3 139.7,8.3 139.7,11.2 142.9,11.2 142.9,12.5 139.7,12.5 139.7,15.6 
		143.8,15.6 143.8,17 138,17 138,7 	"/>
	<polygon class="st0" points="70.7,23.7 72.4,23.7 72.4,27.9 75.8,27.9 75.8,23.7 77.4,23.7 77.4,33.8 75.8,33.8 75.8,29.3 
		72.4,29.3 72.4,33.8 70.7,33.8 70.7,23.7 	"/>
	<path class="st0" d="M85.9,28.8c0.1,1.4-0.2,2.7-0.9,3.9c-1.2,1.5-3.3,1.8-4.8,0.6c-0.2-0.2-0.4-0.4-0.6-0.6
		c-0.7-1.2-1-2.6-0.9-3.9c-0.1-1.4,0.3-2.7,1-3.9c1.2-1.5,3.3-1.8,4.8-0.6c0.2,0.2,0.4,0.4,0.6,0.6C85.7,26,86,27.4,85.9,28.8
		L85.9,28.8z M84.2,28.8c0-1-0.1-1.9-0.4-2.8c-0.3-0.8-1.2-1.2-2-1c-0.4,0.2-0.8,0.5-1,1c-0.3,0.9-0.5,1.9-0.4,2.8
		c0,1,0.1,1.9,0.4,2.8c0.2,0.7,0.8,1.1,1.5,1c0.7,0,1.2-0.4,1.4-1C84.1,30.7,84.2,29.7,84.2,28.8L84.2,28.8z"/>
	<path class="st0" d="M93.8,26l-1.4,0.5c-0.1-0.4-0.3-0.9-0.7-1.2c-0.3-0.3-0.7-0.4-1.1-0.4c-0.4,0-0.8,0.1-1,0.4
		c-0.2,0.2-0.4,0.6-0.4,0.9c0,0.3,0.1,0.7,0.4,0.9c0.5,0.3,1,0.6,1.6,0.8c0.6,0.2,1.1,0.4,1.6,0.7c0.8,0.5,1.2,1.4,1.2,2.4
		c0,0.8-0.3,1.6-0.9,2.2c-0.7,0.6-1.6,1-2.5,0.9c-1.7,0.1-3.2-1.1-3.5-2.8l1.5-0.4c0.1,1.1,1,1.9,2.1,1.9c0.4,0,0.9-0.1,1.2-0.4
		c0.3-0.3,0.4-0.6,0.4-1c0-0.3-0.1-0.6-0.3-0.8c-0.4-0.4-0.9-0.7-1.4-0.8c-0.6-0.2-1.2-0.5-1.8-0.8c-0.8-0.5-1.3-1.4-1.3-2.4
		c0-0.8,0.3-1.5,0.8-2c0.6-0.6,1.4-0.9,2.2-0.8C92.1,23.4,93.5,24.4,93.8,26L93.8,26z"/>
	<polygon class="st0" points="95.2,23.7 101.4,23.7 101.4,25.1 99.2,25.1 99.2,33.8 97.5,33.8 97.5,25.1 95.2,25.1 95.2,23.7 	"/>
	<polygon class="st0" points="103.2,23.7 109,23.7 109,25 104.8,25 104.8,27.9 108.1,27.9 108.1,29.3 104.8,29.3 104.8,32.4 
		109,32.4 109,33.8 103.2,33.8 103.2,23.7 	"/>
	<polygon class="st0" points="110.9,23.7 112.6,23.7 112.6,32.4 116.2,32.4 116.2,33.8 110.9,33.8 110.9,23.7 	"/>
	<polygon class="st0" points="117.9,23.7 123.7,23.7 123.7,25 119.6,25 119.6,27.9 122.8,27.9 122.8,29.3 119.6,29.3 119.6,32.4 
		123.8,32.4 123.8,33.8 117.9,33.8 117.9,23.7 	"/>
	<path class="st0" d="M125.5,23.7h3c0.9-0.1,1.7,0.2,2.4,0.8c0.6,0.6,0.8,1.4,0.8,2.1c0.1,1.1-0.5,2.2-1.6,2.6l1.9,4.6h-1.8
		l-1.6-4.2h-1.6v4.2h-1.7L125.5,23.7L125.5,23.7z M127.2,25v3.3h1.3c0.4,0,0.9-0.1,1.2-0.5c0.3-0.3,0.4-0.8,0.4-1.2
		c0-1.1-0.5-1.6-1.6-1.6L127.2,25z"/>
	<path class="st0" d="M133.8,23.7h1.7v10.1h-1.7V23.7z M133.8,22.3l2.4-2.1l0.8,1l-2.6,1.6L133.8,22.3L133.8,22.3z"/>
	<path class="st0" d="M139.4,23.7h1.9l2.7,10.1h-1.7l-0.6-2.5h-3l-0.6,2.5h-1.6L139.4,23.7L139.4,23.7z M141.3,30l-1.2-4.6L139,30
		H141.3z"/>
	<polygon class="st1" points="70.7,40.7 78.4,40.7 78.4,42.4 72.9,42.4 72.9,46.3 77.2,46.3 77.2,48.1 72.9,48.1 72.9,52.2 
		78.5,52.2 78.5,54.1 70.7,54.1 70.7,40.7 	"/>
	<path class="st1" d="M80.8,40.7H83V49c0,0.7,0.1,1.4,0.2,2c0.1,0.4,0.3,0.8,0.7,1c0.8,0.5,1.9,0.5,2.7,0.1c0.3-0.2,0.6-0.5,0.7-0.9
		c0.2-0.8,0.2-1.5,0.2-2.3v-8.3h2v8.2c0,1-0.1,2-0.3,3c-0.2,0.7-0.7,1.4-1.3,1.8c-0.8,0.5-1.8,0.7-2.7,0.7c-0.8,0-1.6-0.1-2.3-0.4
		c-0.7-0.3-1.2-0.8-1.5-1.5c-0.4-1.1-0.6-2.3-0.5-3.5V40.7L80.8,40.7z"/>
	<path class="st1" d="M91.8,40.7h4c1.2-0.1,2.3,0.3,3.2,1c0.7,0.8,1.1,1.8,1,2.8c0.1,1.5-0.7,2.9-2.1,3.5l2.6,6.1h-2.4l-2.1-5.6H94
		v5.6h-2.2V40.7z M94,42.4v4.4h1.7c0.6,0.1,1.2-0.2,1.7-0.6c0.4-0.5,0.6-1,0.5-1.6c0-1.4-0.7-2.1-2.2-2.1L94,42.4z"/>
	<path class="st1" d="M111.4,47.4c0.1,1.8-0.3,3.6-1.2,5.2c-1.5,2-4.4,2.3-6.4,0.8c-0.3-0.2-0.6-0.5-0.8-0.8
		c-0.9-1.6-1.3-3.4-1.2-5.2c-0.1-1.8,0.3-3.6,1.2-5.2c1.5-2,4.4-2.3,6.3-0.8c0.3,0.2,0.6,0.5,0.8,0.8
		C111.1,43.8,111.6,45.6,111.4,47.4L111.4,47.4z M109,47.4c0.1-1.3-0.1-2.6-0.5-3.8c-0.4-1.1-1.5-1.6-2.6-1.3
		c-0.6,0.2-1.1,0.7-1.3,1.3c-0.4,1.2-0.6,2.5-0.5,3.8c0,1.3,0.2,2.5,0.6,3.7c0.3,0.8,1.1,1.4,2,1.4c0.9,0,1.6-0.5,1.9-1.3
		C109,49.9,109.1,48.6,109,47.4L109,47.4z"/>
	<path class="st1" d="M113.6,40.7h3.3c0.9,0,1.7,0.1,2.6,0.3c0.7,0.2,1.3,0.7,1.7,1.3c0.5,0.7,0.7,1.6,0.7,2.5
		c0,0.8-0.2,1.6-0.5,2.3c-0.3,0.6-0.9,1.1-1.5,1.4c-0.9,0.3-1.9,0.5-2.9,0.4h-1.2v5.2h-2.2V40.7z M115.8,42.4v4.7h1.1
		c0.7,0.1,1.5-0.1,2.1-0.6c0.4-0.5,0.6-1.1,0.6-1.8c0-0.5-0.1-1-0.4-1.5c-0.2-0.3-0.5-0.6-0.8-0.7c-0.5-0.1-0.9-0.1-1.4-0.1
		L115.8,42.4z"/>
	<polygon class="st1" points="124.1,40.8 131.7,40.8 131.7,42.5 126.3,42.5 126.3,46.4 130.6,46.4 130.6,48.2 126.3,48.2 
		126.3,52.3 131.8,52.3 131.8,54.2 124.1,54.2 124.1,40.8 	"/>
	<path class="st1" d="M137.9,40.7h2.5l3.6,13.4h-2.3l-0.8-3.4H137l-0.8,3.4H134L137.9,40.7L137.9,40.7z M140.5,49l-1.5-6.1l-1.5,6.1
		H140.5z"/>
</g>
</svg>
